PathFileType	4	(X/Y/Z)	6_coords_data.trc
DataRate	CameraRate	NumFrames	NumMarkers	Units	OrigDataRate	OrigDataStartFrame	OrigNumFrames
30.0	30.0	6	21	m	30.0	10	68
Frame#	Time	THUMB_TIP	THUMB_IP	THUMB_MCP	THUMB_CMC	INDEX_TIP	INDEX_DIP	INDEX_PIP	INDEX_MCP	MIDDLE_TIP	MIDDLE_DIP	MIDDLE_PIP	MIDDLE_MCP	RING_TIP	RING_DIP	RING_PIP	RING_MCP	PINKY_TIP	PINKY_DIP	PINKY_PIP	PINKY_MCP	WRIST
X1	Y1	Z1	X2	Y2	Z2	X3	Y3	Z3	X4	Y4	Z4	X5	Y5	Z5	X6	Y6	Z6	X7	Y7	Z7	X8	Y8	Z8	X9	Y9	Z9	X10	Y10	Z10	X11	Y11	Z11	X12	Y12	Z12	X13	Y13	Z13	X14	Y14	Z14	X15	Y15	Z15	X16	Y16	Z16	X17	Y17	Z17	X18	Y18	Z18	X19	Y19	Z19	X20	Y20	Z20	X21	Y21	Z21
8	0.2999999999999987	0.4440184688432839	-0.05317258911066303	-0.16954986012226103	0.45624086913210804	-0.0513148165176478	-0.15018077103236338	0.4565450169714166	-0.038314243814930427	-0.12190158074174157	0.4670612094139791	-0.0300375565011769	-0.07934813031029775	0.5517473826872809	0.028779305847239756	-0.18492578735120083	0.5431552124272668	0.019880907599832187	-0.17169729088132693	0.5318096865882674	0.007263811321801983	-0.15314741869989368	0.5120526098879262	-0.008472983080349494	-0.11885970492073872	0.5829304970262883	0.05995269335224507	-0.13569398550689038	0.5725877615995566	0.04602535317393863	-0.13049234927870573	0.5543209238310239	0.025689301618405103	-0.12038407568383339	0.5234176074103565	9.33519493196977e-05	-0.10073769393701398	0.5984208732399682	0.04750103376154413	-0.08712955706666131	0.5860193949286558	0.03441935558863518	-0.08685931296499771	0.5678241691882833	0.017441661991618784	-0.08592568596093239	0.5343538981645608	-0.004861711986144712	-0.08179999804173738	0.596775462660467	0.00403022765097838	-0.02598557887583869	0.583871703784116	-0.0029810925003592725	-0.03477957663547218	0.5665157284481763	-0.008634891475201356	-0.04515342338054859	0.5344817491347275	-0.010696664466043004	-0.06159899155193649	0.4622830810018609	-0.023011742144276925	-0.051989820119430985
9	0.33333333333333187	0.44408605117906497	-0.053371631755687154	-0.16951503987147037	0.4562761726554574	-0.05147413070587192	-0.15012946719082074	0.4565594082434996	-0.03840611352039924	-0.1218811627383079	0.4670688518797087	-0.030082721790334666	-0.07933515535141858	0.5518542321497519	0.02868186216670454	-0.18492697464855234	0.543231139614636	0.019800287251437454	-0.1717072960535439	0.5318445220110446	0.00721242376901321	-0.15316274252703815	0.5120117503978817	-0.008451754943005207	-0.11888547937173258	0.583125404713172	0.05974724334326542	-0.1357475191800661	0.5727406138607749	0.045853684455009924	-0.13053933904007992	0.5543876513095991	0.025601955031878787	-0.12041778920977134	0.5233806715681495	0.00013849575740632059	-0.10076257692166268	0.5985979074332219	0.04729554381949885	-0.0872906504077183	0.5861510606851255	0.03425756234475397	-0.0869956163527208	0.5678982707641731	0.01734493324518127	-0.08600636611043161	0.5343337789164306	-0.004803739941783403	-0.0818132769079627	0.5968087493591325	0.004004268283545054	-0.026034615063222327	0.5838881603132122	-0.0029901373819939403	-0.03481736338549138	0.5665221586281112	-0.008624391481246607	-0.04518506251394422	0.5344738072300086	-0.010655936052399007	-0.06160637337267777	0.4622830810018609	-0.023011742144276925	-0.051989820119430985
10	0.3666666666666651	0.4441511873160784	-0.053571330448961785	-0.16947194949746913	0.4563158656950649	-0.05162144877152852	-0.15007559516528005	0.45656290364350427	-0.038476782997783565	-0.1218625355306256	0.46707385997886663	-0.030138133326130245	-0.0793198896494684	0.5519758413478899	0.028580694415877406	-0.18492255514928052	0.5433194224637635	0.01971970345800389	-0.17171084627620034	0.5318868298287476	0.00716165361882104	-0.1531743675685715	0.5119700574843803	-0.00842565004003859	-0.11891076825342142	0.583318492007353	0.05953242865437702	-0.13580751938067057	0.5728942014292092	0.045670922275458437	-0.13059284711391933	0.5544590930830269	0.02550054131830992	-0.12045815114867153	0.5233443045683832	0.00018035186790887892	-0.10078822835053108	0.5987689898293653	0.04709787077459515	-0.08745404100701235	0.5862732734254891	0.03410733616275652	-0.08713297706864831	0.5679618653116958	0.017261337059497173	-0.08609152322757113	0.5343170093167343	-0.00475019454696457	-0.08182104603924129	0.5968440720139322	0.0039912928535355	-0.026082006072607994	0.5839048050716138	-0.002986167009611629	-0.034850724613740114	0.5665306746607666	-0.008605052646548095	-0.04521314400623261	0.5344667785167405	-0.010615207616831879	-0.06160671872502277	0.4622830810018608	-0.023011742144276925	-0.051989820119430985
11	0.39999999999999825	0.44424269521582305	-0.05379625455231496	-0.16943253993181231	0.4563734284376527	-0.051781527070888345	-0.15002155889848007	0.45658612912474583	-0.03857291830231613	-0.1218380989828397	0.46709599939365487	-0.03016746719500718	-0.07930833271716003	0.5521157703427054	0.028474537512996445	-0.18490773404760166	0.5434187105586554	0.019637505801626598	-0.17170667266433004	0.5319362653568587	0.007114631073960598	-0.15317721250643776	0.5119375921476474	-0.008403954524255797	-0.1189301299313919	0.583516096960728	0.059316970140852354	-0.1358655881491214	0.5730449629237104	0.0454934639427691	-0.13064389988091082	0.5545277244581679	0.025404546902758618	-0.1204971347919869	0.5233052844388275	0.00022682557858921815	-0.1008149217771564	0.5989120206144284	0.04692691494709833	-0.08764033183620665	0.5863772140463901	0.03397501147720472	-0.08728421274317177	0.5680079170572647	0.017195724650103328	-0.08618674260728124	0.5342980818966345	-0.004700412908260843	-0.08183622453832173	0.5968659584576951	0.00402227911623021	-0.02613575806752938	0.5839090523959847	-0.0029422120838803467	-0.03488872600027057	0.5665295247563485	-0.008551995933487988	-0.04524702524212504	0.5344540263387577	-0.010550868926692214	-0.06161926879700064	0.4622830810018609	-0.023011742144276925	-0.051989820119430985
12	0.43333333333333146	0.4443607403729538	-0.054042404023222135	-0.1693929690511176	0.4564515368536526	-0.05198129880364499	-0.14996195040215965	0.45660762860305804	-0.03870703296278577	-0.12180898427508935	0.467105134913135	-0.030228324804088325	-0.07929070739055966	0.5522894676121634	0.028336196024237426	-0.18488010198410204	0.5435475473000863	0.019523606876687305	-0.171692338649337	0.5320169449560681	0.007033579792629752	-0.1531706144848961	0.5119124798301145	-0.008403522966346944	-0.11894865611883965	0.5837315518773686	0.0590826795534487	-0.1359012336987857	0.573215922677146	0.045293522475682746	-0.13067814174017317	0.5546182810686261	0.02528198284123173	-0.12052552837908029	0.5232767596686583	0.00025901091094038264	-0.10083523043539161	0.5990609412765702	0.04675514184442009	-0.08780688973991901	0.5864810805831742	0.03384805001531799	-0.08741435254437815	0.5680586050901846	0.017130906221100806	-0.0862613221572412	0.534287073766819	-0.004654618904561536	-0.08183465285921646	0.5968816949452735	0.0040789180778616485	-0.026150992106356213	0.5839099411933744	-0.0028743305540217534	-0.03489089702936876	0.5665300352340003	-0.0084868819699091	-0.04524706207475765	0.5344465176320058	-0.010494566931371185	-0.061602506134092516	0.4622830810018609	-0.023011742144276925	-0.05198982011943101
13	0.4666666666666647	0.44447271608044214	-0.05428913207117758	-0.16935538395271965	0.45653417070770086	-0.05213550322811589	-0.1499161659879734	0.45662191083853987	-0.03882496741803698	-0.12178003373568888	0.46712023291883487	-0.030266105593722226	-0.07927802063312309	0.5524256856516014	0.028266004154939073	-0.18484610462599046	0.5436455024822751	0.01946757471047955	-0.1716743157260747	0.5320735917552476	0.006999446833283796	-0.1531636025479283	0.5118749448487301	-0.008380734440750048	-0.1189714867736201	0.5839150512821317	0.05890006062908848	-0.13593003110935015	0.5733589123266801	0.045143102623671605	-0.13070374784201816	0.5546865150261845	0.025206885723637273	-0.120540166545682	0.5232379124055788	0.00031174819118207076	-0.10085856494796186	0.5991751645503499	0.04663349393037142	-0.08799788987770557	0.5865591205788498	0.033762973147625996	-0.08756762334392099	0.5680914647979579	0.017100253036010926	-0.08635130618113993	0.5342653701384534	-0.004583705855209952	-0.08184330430779355	0.5968900422537005	0.0041878162084207915	-0.026185322876301154	0.5839041021844313	-0.002759322254312968	-0.03490900487973053	0.5665240062401451	-0.008384622021679666	-0.045257931707893134	0.5344335823688466	-0.0104159426973911	-0.06159689994560119	0.4622830810018608	-0.023011742144276925	-0.051989820119430985
